<svg xmlns="http://www.w3.org/2000/svg" width="96" height="96" baseProfile="basic" viewBox="0 0 48 48"><linearGradient id="a" x1="24" x2="24" y1="41" y2="7" gradientUnits="userSpaceOnUse"><stop offset="0" stop-color="#643499"/><stop offset=".011" stop-color="#68369f"/><stop offset=".135" stop-color="#773db6"/><stop offset=".193" stop-color="#8042c3"/><stop offset=".248" stop-color="#8343c8"/><stop offset=".388" stop-color="#8444c9"/><stop offset=".732" stop-color="#9751d2"/><stop offset=".997" stop-color="#9c55d4"/><stop offset=".998" stop-color="#9c55d4"/><stop offset="1" stop-color="#9c55d4"/></linearGradient><path fill="url(#a)" d="M7.373 11.443C7.293 9.132 9.094 7 11.529 7h24.946c2.435 0 4.236 2.132 4.155 4.443-.077 2.221.023 5.097.747 7.443.681 2.207 1.801 3.652 3.593 3.981a.43.43 0 0 1 .363.415v1.438c0 .21-.157.377-.363.415-1.792.328-2.912 1.773-3.593 3.981-.724 2.345-.824 5.222-.747 7.443.08 2.309-1.721 4.441-4.155 4.441H11.529c-2.434 0-4.236-2.132-4.155-4.443.077-2.221-.023-5.097-.747-7.443-.681-2.207-1.804-3.652-3.596-3.981a.43.43 0 0 1-.363-.415V23.28c0-.21.157-.377.363-.415 1.792-.328 2.915-1.773 3.596-3.981.723-2.344.824-5.22.746-7.441"/><path fill="#fff" d="M27.073 23.464v-.028c1.853-.32 3.299-2.057 3.299-3.97 0-1.352-.52-2.498-1.504-3.312-.981-.812-2.357-1.241-3.981-1.241H17.45V33.08h7.475c1.942 0 3.555-.474 4.663-1.372s1.696-2.207 1.696-3.783c-.001-2.381-1.691-4.169-4.211-4.461m-3.483-.856h-3.181V17.29h3.784c2.076 0 3.219.911 3.219 2.565.001 1.775-1.357 2.753-3.822 2.753m-3.181 2.226h3.759c2.716 0 4.092.981 4.092 2.916 0 1.932-1.357 2.953-3.925 2.953h-3.926z"/></svg>