<svg xmlns="http://www.w3.org/2000/svg" width="64" height="64" preserveAspectRatio="xMidYMid" viewBox="0 0 64 64"><path fill="#f7df1e" d="M0 0h64v64H0Z"/><path d="m16.828 53.483 4.898-2.964c.945 1.675 1.804 3.093 3.866 3.093 1.976 0 3.222-.773 3.222-3.78v-20.45h6.014v20.535c0 6.23-3.651 9.064-8.978 9.064-4.812 0-7.605-2.491-9.022-5.498M38.095 52.839l4.897-2.836c1.29 2.105 2.965 3.652 5.93 3.652 2.491 0 4.08-1.246 4.08-2.964 0-2.063-1.632-2.793-4.382-3.995l-1.503-.645c-4.34-1.847-7.218-4.167-7.218-9.065 0-4.51 3.437-7.948 8.807-7.948 3.824 0 6.573 1.332 8.55 4.812l-4.683 3.007c-1.031-1.847-2.148-2.577-3.866-2.577-1.762 0-2.879 1.117-2.879 2.577 0 1.805 1.117 2.535 3.694 3.652l1.504.645c5.112 2.19 7.99 4.424 7.99 9.45 0 5.414-4.252 8.378-9.966 8.378-5.585 0-9.194-2.663-10.955-6.143"/></svg>