<svg xmlns="http://www.w3.org/2000/svg" width="109" height="57" fill="none" viewBox="0 0 109 57"><path fill="url(#a)" d="M68 42.39c0-1.046.91-1.86 1.95-1.744l31.301 3.49c3.976.443 7.34-2.91 6.91-6.888-.448-4.132-4.727-6.686-8.577-5.117L70.417 44.015A1.755 1.755 0 0 1 68 42.39"/><path fill="#fff" d="m.9 45 12.735-31.635h4.995L31.32 45h-6.525l-9.81-25.965h2.25L7.29 45zm6.75-5.895v-5.13h17.01v5.13zM34.778 45V12.465h5.895V45zm21.513.45q-3.42 0-6.075-1.44a11.4 11.4 0 0 1-4.23-4.05q-1.53-2.565-1.53-5.85 0-3.24 1.485-5.76 1.53-2.565 4.14-4.05 2.61-1.53 5.805-1.53 3.15 0 5.535 1.44 2.43 1.395 3.78 3.87 1.395 2.43 1.395 5.535 0 .585-.09 1.215-.045.585-.225 1.35l-18.27.045v-4.41l15.525-.045-2.385 1.845q-.09-1.935-.72-3.24-.585-1.305-1.755-1.98-1.125-.72-2.79-.72-1.755 0-3.06.81-1.305.765-2.025 2.205-.675 1.395-.675 3.33 0 1.98.72 3.465.765 1.44 2.16 2.25 1.395.765 3.24.765 1.665 0 3.015-.54 1.35-.585 2.34-1.71l3.465 3.465a10 10 0 0 1-3.87 2.79q-2.25.945-4.905.945m35.1-.45-9.09-14.085h-.9l-12.33-17.55h7.246l9.045 13.275h.9L98.547 45zm-22.86 0 11.836-16.92 4.5 3.015L75.462 45zm18.046-15.03-4.5-3.015 9-13.59h6.93z"/><defs><linearGradient id="a" x1="219.1" x2="202.599" y1="39.998" y2="91.404" gradientUnits="userSpaceOnUse"><stop stop-color="#df8908"/><stop offset="1" stop-color="#b415ff"/></linearGradient></defs></svg>