<svg xmlns="http://www.w3.org/2000/svg" width="120" height="60" viewBox="0 0 9.252 4.626"><g fill-rule="evenodd"><path fill="#00678c" d="M1.388 3.473h.217v-.859l.338.749c.039.09.094.123.2.123s.159-.033.198-.123l.337-.749v.859h.219v-.859c0-.083-.034-.123-.104-.145-.165-.05-.275-.007-.325.105l-.332.74-.32-.74c-.048-.112-.16-.155-.327-.105-.068.022-.101.062-.101.145zm1.69-.699h.218v.472c-.002.027.008.087.127.088.061.002.47 0 .473 0v-.563h.219v.772c0 .19-.236.232-.345.233h-.687v-.145h.688c.14-.015.124-.085.124-.108v-.057h-.462c-.215-.002-.354-.097-.355-.205zm4.685-.547a.8.8 0 0 0-.323.047c-.025.01-.065.01-.069.042.014.013.015.035.027.053a.4.4 0 0 0 .087.102q.052.04.106.076c.065.04.139.064.202.104.037.023.073.053.11.078.019.013.03.035.054.043v-.005c-.012-.015-.015-.036-.027-.053l-.05-.048a.8.8 0 0 0-.174-.169c-.053-.036-.17-.086-.191-.148l-.004-.003c.037-.004.08-.017.115-.027.057-.015.109-.012.167-.027l.08-.023v-.015c-.03-.03-.051-.07-.083-.098a2 2 0 0 0-.275-.206c-.052-.033-.119-.055-.174-.083-.02-.01-.053-.015-.065-.032-.03-.036-.047-.085-.068-.128a4 4 0 0 1-.137-.29c-.03-.065-.048-.13-.085-.19a1.7 1.7 0 0 0-.645-.624c-.062-.035-.135-.05-.213-.068L6.003.528C5.976.516 5.949.485 5.926.469c-.095-.06-.34-.19-.41-.018-.046.109.066.215.104.27.029.039.065.082.085.125.012.029.015.059.027.089.027.073.052.155.087.223a1 1 0 0 0 .061.104c.014.018.037.026.042.056-.023.034-.025.084-.038.125-.06.189-.037.422.048.56.027.042.09.134.175.1.075-.03.058-.126.08-.21.005-.02.002-.033.012-.046v.003l.068.139a1 1 0 0 0 .217.223c.04.03.072.082.122.1v-.005h-.004c-.01-.015-.025-.021-.038-.033a1 1 0 0 1-.087-.1 2 2 0 0 1-.186-.304c-.027-.051-.05-.108-.072-.16-.01-.02-.01-.05-.027-.06-.025.037-.062.069-.08.114-.032.071-.035.16-.047.251-.006.002-.003 0-.006.004-.054-.013-.072-.069-.092-.115a.72.72 0 0 1-.015-.445c.012-.036.062-.146.042-.179-.01-.032-.044-.05-.062-.075a1 1 0 0 1-.06-.107c-.04-.093-.06-.196-.103-.29C5.749.765 5.714.72 5.685.68 5.653.635 5.62.603 5.593.55 5.585.53 5.573.5 5.587.48Q5.59.463 5.61.46c.022-.019.084.005.105.015a1 1 0 0 1 .165.083c.024.017.049.048.079.057h.035c.053.011.113.003.163.018.088.028.169.07.24.115.219.138.399.335.52.57.02.039.029.074.047.114.035.082.079.165.114.245.035.078.068.158.118.224.025.035.125.053.17.071.033.015.085.029.115.047q.087.054.167.113c.027.02.11.062.115.095zM6.063.778a.3.3 0 0 0-.069.008V.79h.003c.014.026.037.045.054.068l.038.08.004-.003Q6.128.91 6.128.85c-.01-.011-.012-.023-.02-.035C6.098.8 6.076.791 6.063.778"/><path fill="#ce8b2c" d="M4.281 3.473h.627a.5.5 0 0 0 .2-.042q.141-.064.14-.178v-.16c0-.062-.051-.12-.155-.16a.6.6 0 0 0-.185-.032h-.263c-.089 0-.13-.027-.142-.085q-.002-.01-.002-.02v-.099q0-.008.002-.018c.012-.045.035-.057.112-.065h.642V2.47h-.61a.6.6 0 0 0-.177.018c-.128.04-.185.104-.185.215v.127c0 .099.11.182.297.202q.03.002.063.002h.225l.023.001c.069.007.099.019.119.044a.05.05 0 0 1 .017.04v.126c0 .015-.01.035-.03.052s-.052.028-.094.03l-.022.002h-.602zm2.325-.252q0 .223.335.249l.063.003h.567v-.145H7c-.126 0-.175-.032-.175-.109v-.75h-.219zm-1.22.007V2.71q.002-.199.276-.237l.058-.003h.414q.03 0 .062.003.272.038.273.237v.517c0 .106-.038.163-.128.202l.213.193h-.252l-.173-.157-.175.01H5.72a.5.5 0 0 1-.127-.016c-.138-.039-.206-.112-.206-.232m.236-.012q.002.01.005.022c.012.06.068.093.155.093h.197l-.18-.163h.251l.159.143a.1.1 0 0 0 .055-.07q.002-.011.002-.022v-.495q0-.01-.002-.02c-.012-.057-.068-.088-.153-.088h-.329c-.097 0-.16.041-.16.108z"/></g></svg>