<svg xmlns="http://www.w3.org/2000/svg" viewBox="0 0 511.76 498.97"><defs><style>.b{fill:#31a8ff}</style></defs><title>adobe-photoshop</title><rect width="511.76" height="498.97" rx="90.62" style="fill:#001e36"/><path d="M115.24 349.91V130.53c0-1.59.68-2.4 2.06-2.4 3.65 0 7 0 12-.17s10.47-.23 16.31-.34l18.54-.35q9.78-.17 19.39-.17 26.09 0 44 6.52a76.4 76.4 0 0 1 28.66 17.51 67.1 67.1 0 0 1 15.62 24.21 80.3 80.3 0 0 1 4.79 27.66q0 27.48-12.7 45.32a71.8 71.8 0 0 1-34.33 25.92c-14.42 5.38-30.45 7.2-48.07 7.2-5 0-8.58-.05-10.64-.17s-5.15-.17-9.27-.17v68.49a2.72 2.72 0 0 1-2.32 3.09 2.5 2.5 0 0 1-.77 0h-40.87c-1.64-.03-2.4-.94-2.4-2.77m46.36-180.58v71.55q4.46.35 8.24.34h11.33a80.6 80.6 0 0 0 24.55-3.92 37 37 0 0 0 17.51-11.3q6.69-7.89 6.69-22a34.74 34.74 0 0 0-5-18.88A32 32 0 0 0 210 172.93a63.7 63.7 0 0 0-25-4.29q-8.25 0-14.59.17t-8.76.52ZM409.35 227.87a80 80 0 0 0-20.43-7.21 108.3 108.3 0 0 0-23.86-2.75 44.4 44.4 0 0 0-12.87 1.55 11.55 11.55 0 0 0-6.7 4.29 10.8 10.8 0 0 0-1.71 5.84 9.08 9.08 0 0 0 2.06 5.49 23.3 23.3 0 0 0 7.21 5.66 142 142 0 0 0 15.1 7 150 150 0 0 1 32.79 15.62 50 50 0 0 1 16.82 17.68 47.2 47.2 0 0 1 5 22 49.4 49.4 0 0 1-8.24 28.33 54.23 54.23 0 0 1-23.86 19.05Q375 357.3 352 357.3a140.5 140.5 0 0 1-29-2.75 92.4 92.4 0 0 1-21.8-6.87 4.44 4.44 0 0 1-2.41-4.12v-37.07a2 2 0 0 1 .86-1.89 1.66 1.66 0 0 1 1.89.17A91.6 91.6 0 0 0 328 315.24a108.7 108.7 0 0 0 25.07 3.26q12 0 17.68-3.09a9.7 9.7 0 0 0 5.66-8.92q0-4.47-5.15-8.59T350.3 288a126 126 0 0 1-30.38-15.45 52.4 52.4 0 0 1-16.14-18 47.35 47.35 0 0 1-5-21.8 49.2 49.2 0 0 1 7.22-25.82 52.37 52.37 0 0 1 22.32-19.57q15.1-7.55 37.76-7.55a167 167 0 0 1 26.44 1.88 69.6 69.6 0 0 1 18.4 5 3.13 3.13 0 0 1 2.06 1.89 9.3 9.3 0 0 1 .34 2.57v34.68a2.3 2.3 0 0 1-1 2.06 3.33 3.33 0 0 1-2.97-.02" class="b"/></svg>